<svg width="24" height="24" viewBox="0 0 24 24" fill="none" xmlns="http://www.w3.org/2000/svg">
<path fill-rule="evenodd" clip-rule="evenodd" d="M12.9854 3.01367H19.9854C20.5354 3.01367 20.9854 3.46367 20.9854 4.01367V9.01367C20.9854 9.56367 20.5354 10.0137 19.9854 10.0137H14.9854L11.9854 13.0137V4.01367C11.9854 3.46367 12.4354 3.01367 12.9854 3.01367ZM16.6754 14.9837L19.2154 15.2737C20.2254 15.3937 20.9854 16.2437 20.9754 17.2537V18.9837C20.9754 20.1137 20.0354 21.0537 18.9054 20.9837C10.3754 20.4537 3.54539 13.6337 3.01539 5.09367C2.94539 3.96367 3.88539 3.02367 5.01539 3.02367H6.74539C7.76539 3.02367 8.61539 3.78367 8.73539 4.79367L9.02539 7.31367C9.09539 7.92367 8.88539 8.52367 8.45539 8.95367L6.60539 10.8037C8.04539 13.6437 10.3654 15.9537 13.1954 17.3937L15.0354 15.5537C15.4654 15.1237 16.0654 14.9137 16.6754 14.9837Z" fill="#96D328"/>
</svg>
